<svg xmlns="http://www.w3.org/2000/svg" xmlns:xlink="http://www.w3.org/1999/xlink" id="Layer_2" data-name="Layer 2" version="1.1" viewBox="0 0 32 32"><defs id="defs4"><linearGradient id="a" x1="0" x2="0" y1="0" y2="256" gradientTransform="translate(-13.641 -63.505) scale(.54688)" gradientUnits="userSpaceOnUse"><stop id="stop127" offset="0%" style="stop-color:#1c71d8;stop-opacity:1"/><stop id="stop129" offset="100%" style="stop-color:#2ec27e;stop-opacity:1"/></linearGradient><linearGradient id="a-3" x1="0" x2="0" y1="0" y2="256" gradientTransform="translate(803.81 -87.878) scale(.54688)" gradientUnits="userSpaceOnUse"><stop id="stop127-6" offset="0%" style="stop-color:#1c71d8;stop-opacity:1"/><stop id="stop129-7" offset="100%" style="stop-color:#2ec27e;stop-opacity:1"/></linearGradient><linearGradient xlink:href="#a-3" id="linearGradient1072" x1="0" x2="0" y1="0" y2="256" gradientTransform="matrix(.125 0 0 .125 0 0)" gradientUnits="userSpaceOnUse"/><style id="style2">.cls-1{fill:#e95420}.cls-2{fill:#fff}</style></defs><rect id="rect134" width="32" height="32" x="0" y="0" fill="url(#a)" ry="16" style="fill:url(#linearGradient1072);stroke-width:.125"/><path id="path238" fill="#2e3436" d="M16 5a1.37 1.37 0 0 0-1.375 1.375V7.75A1.37 1.37 0 0 0 16 9.125a1.37 1.37 0 0 0 1.375-1.375V6.375A1.37 1.37 0 0 0 16 5ZM9.136 7.755c-.355 0-.704.14-.972.409a1.365 1.365 0 0 0 0 1.944l.972.972a1.374 1.374 0 1 0 1.944-1.944l-.972-.972a1.38 1.38 0 0 0-.972-.409Zm13.728 0c-.349 0-.703.14-.972.409l-.972.972a1.374 1.374 0 1 0 1.944 1.944l.972-.972a1.365 1.365 0 0 0 0-1.944 1.372 1.372 0 0 0-.972-.409ZM16 10.5c-3.04 0-5.5 2.46-5.5 5.5s2.46 5.5 5.5 5.5 5.5-2.46 5.5-5.5-2.46-5.5-5.5-5.5zm-9.625 4.125A1.37 1.37 0 0 0 5 16a1.37 1.37 0 0 0 1.375 1.375H7.75A1.37 1.37 0 0 0 9.125 16a1.37 1.37 0 0 0-1.375-1.375zm17.875 0A1.37 1.37 0 0 0 22.875 16a1.37 1.37 0 0 0 1.375 1.375h1.375A1.37 1.37 0 0 0 27 16a1.37 1.37 0 0 0-1.375-1.375zm-14.212 5.892c-.328.016-.65.15-.902.403l-.972.972a1.365 1.365 0 0 0 0 1.944 1.365 1.365 0 0 0 1.944 0l.972-.972a1.374 1.374 0 0 0-1.042-2.347zm11.79 0a1.374 1.374 0 0 0-.908 2.347l.972.972a1.365 1.365 0 0 0 1.944 0 1.365 1.365 0 0 0 0-1.944l-.972-.972a1.382 1.382 0 0 0-1.036-.403Zm-5.898 2.358c-.73.038-1.305.64-1.305 1.375v1.375A1.37 1.37 0 0 0 16 27a1.37 1.37 0 0 0 1.375-1.375V24.25A1.37 1.37 0 0 0 16 22.875h-.07zm0 0" style="fill:#fff;stroke-width:1.375"/></svg>